<svg width="24" height="24" viewBox="0 0 24 24" fill="none" xmlns="http://www.w3.org/2000/svg">
<mask id="mask0_102_644" style="mask-type:luminance" maskUnits="userSpaceOnUse" x="10" y="8" width="11" height="12">
<path fill-rule="evenodd" clip-rule="evenodd" d="M10.0396 8.06567H20.9932V20H10.0396V8.06567Z" fill="white"/>
</mask>
<g mask="url(#mask0_102_644)">
<path fill-rule="evenodd" clip-rule="evenodd" d="M20.9877 19.4909C20.9901 17.5797 20.9998 15.6684 20.9843 13.7574C20.9774 12.9203 20.9474 12.081 20.7715 11.2571C20.4831 9.90632 19.8341 8.85173 18.5449 8.35996C17.6848 8.03191 16.7857 8.01079 15.8875 8.13796C15.1331 8.24479 14.4381 8.53217 13.8049 9.06632C13.8049 8.87199 13.8042 8.7431 13.805 8.61438C13.807 8.32529 13.6725 8.19461 13.3953 8.19593C12.4103 8.20053 11.4254 8.19936 10.4404 8.19671C10.1692 8.19593 10.0392 8.30791 10.0396 8.61266C10.0448 12.2801 10.0428 15.9475 10.043 19.6149C10.043 19.7555 10.0245 19.9051 10.1872 19.9744C10.2044 19.9971 13.7604 20.0056 13.7602 19.9824C13.9935 19.8777 13.9217 19.6566 13.9221 19.4766C13.9254 17.6678 13.9145 15.8589 13.9243 14.0501C13.9272 13.4844 13.9481 12.913 14.1924 12.3864C14.4819 11.7623 15.081 11.4919 15.9249 11.6025C16.5055 11.6786 16.8761 12.0717 16.9914 12.7566C17.0341 13.0096 17.0661 13.2683 17.0676 13.5246C17.0789 15.5142 17.0804 17.5039 17.0887 19.4935C17.0895 19.6773 17.0344 19.8942 17.271 19.9866C17.2629 20.0127 20.8434 19.9968 20.8444 19.9716C21.037 19.8592 20.9874 19.6633 20.9877 19.4909Z" fill="white"/>
</g>
<path fill-rule="evenodd" clip-rule="evenodd" d="M7.55834 8.00004C6.51861 8.00876 5.47864 8.00685 4.43882 8.00107C4.14502 7.99933 3.99947 8.10075 4 8.43514C4.00651 12.1638 4.00398 15.8925 4.00475 19.621C4.00483 19.763 3.98308 19.919 4.15789 19.9836C4.16455 20.0064 7.83017 20.0049 7.84004 19.9824C8.033 19.9072 7.9941 19.7323 7.99418 19.5811C7.99586 15.8787 7.99288 12.1763 8 8.47397C8.00053 8.13799 7.88553 7.99727 7.55834 8.00004Z" fill="white"/>
<path fill-rule="evenodd" clip-rule="evenodd" d="M5.99997 3C4.89547 3 4 3.89547 4 4.99997C4 6.1046 4.89547 7 5.99997 7C7.10453 7 8 6.1046 8 4.99997C8 3.89547 7.10453 3 5.99997 3Z" fill="white"/>
</svg>
