<svg width="20" height="20" viewBox="0 0 20 20" fill="none" xmlns="http://www.w3.org/2000/svg">
<g clip-path="url(#clip0_65_451)">
<path d="M17.6971 14.6364C17.4042 14.3435 16.9293 14.3435 16.6364 14.6364C16.3435 14.9293 16.3435 15.4042 16.6364 15.6971L17.6971 14.6364ZM19.9696 19.0304C20.2625 19.3233 20.7374 19.3233 21.0303 19.0304C21.3232 18.7375 21.3232 18.2626 21.0303 17.9697L19.9696 19.0304ZM16.6364 15.6971L19.9696 19.0304L21.0303 17.9697L17.6971 14.6364L16.6364 15.6971ZM10.5 15.25C6.77208 15.25 3.75 12.2279 3.75 8.5H2.25C2.25 13.0563 5.94365 16.75 10.5 16.75V15.25ZM17.25 8.5C17.25 12.2279 14.2279 15.25 10.5 15.25V16.75C15.0563 16.75 18.75 13.0563 18.75 8.5H17.25ZM10.5 1.75C14.2279 1.75 17.25 4.77208 17.25 8.5H18.75C18.75 3.94365 15.0563 0.25 10.5 0.25V1.75ZM10.5 0.25C5.94365 0.25 2.25 3.94365 2.25 8.5H3.75C3.75 4.77208 6.77208 1.75 10.5 1.75V0.25Z" fill="#FAFAFA"/>
</g>
<defs>
<clipPath id="clip0_65_451">
<rect width="20" height="20" fill="white"/>
</clipPath>
</defs>
</svg>
