<svg width="89" height="212" viewBox="0 0 89 212" fill="none" xmlns="http://www.w3.org/2000/svg">
<g filter="url(#filter0_d_41_546)">
<path d="M83.4749 180.475C84.8417 179.108 84.8417 176.892 83.4749 175.525L61.201 153.251C59.8342 151.884 57.6181 151.884 56.2513 153.251C54.8844 154.618 54.8844 156.834 56.2513 158.201L76.0502 178L56.2513 197.799C54.8844 199.166 54.8844 201.382 56.2513 202.749C57.6181 204.116 59.8342 204.116 61.201 202.749L83.4749 180.475ZM81 174.5C43.1664 174.5 11.5 137.716 11.5 91H4.5C4.5 140.381 38.2001 181.5 81 181.5V174.5ZM11.5 91C11.5 44.2838 43.1664 7.5 81 7.5V0.5C38.2001 0.5 4.5 41.6186 4.5 91H11.5Z" fill="#0369A1"/>
</g>
<defs>
<filter id="filter0_d_41_546" x="0.5" y="0.5" width="88" height="211.274" filterUnits="userSpaceOnUse" color-interpolation-filters="sRGB">
<feFlood flood-opacity="0" result="BackgroundImageFix"/>
<feColorMatrix in="SourceAlpha" type="matrix" values="0 0 0 0 0 0 0 0 0 0 0 0 0 0 0 0 0 0 127 0" result="hardAlpha"/>
<feOffset dy="4"/>
<feGaussianBlur stdDeviation="2"/>
<feComposite in2="hardAlpha" operator="out"/>
<feColorMatrix type="matrix" values="0 0 0 0 0 0 0 0 0 0 0 0 0 0 0 0 0 0 0.25 0"/>
<feBlend mode="normal" in2="BackgroundImageFix" result="effect1_dropShadow_41_546"/>
<feBlend mode="normal" in="SourceGraphic" in2="effect1_dropShadow_41_546" result="shape"/>
</filter>
</defs>
</svg>
